<?xml version="1.0" standalone="no"?>
<!DOCTYPE svg PUBLIC "-//W3C//DTD SVG 20010904//EN"
 "http://www.w3.org/TR/2001/REC-SVG-20010904/DTD/svg10.dtd">
<svg version="1.0" xmlns="http://www.w3.org/2000/svg"
 width="300.000000pt" height="300.000000pt" viewBox="0 0 300.000000 300.000000"
 preserveAspectRatio="xMidYMid meet">
<metadata>
Created by potrace 1.10, written by Peter Selinger 2001-2011
</metadata>
<g transform="translate(0.000000,300.000000) scale(0.100000,-0.100000)"
fill="#000000" stroke="none">
<path d="M700 1730 l0 -60 166 0 c134 0 173 -3 201 -17 47 -22 73 -66 73 -126
0 -81 -69 -136 -172 -137 l-28 0 0 115 0 115 -60 0 -60 0 0 -110 0 -110 -60 0
-60 0 0 -60 0 -60 183 0 c170 0 185 2 232 24 98 45 150 137 143 250 -5 85 -44
149 -116 192 -63 38 -103 44 -293 44 l-149 0 0 -60z"/>
<path d="M1310 1535 l0 -255 190 0 190 0 0 60 0 60 -130 0 -130 0 0 34 c0 43
8 46 123 43 l87 -2 0 58 0 57 -105 0 -105 0 0 40 0 40 130 0 130 0 0 60 0 60
-190 0 -190 0 0 -255z"/>
<path d="M1742 1780 c2 -5 52 -82 113 -170 l109 -160 56 0 57 0 51 72 52 73 0
-158 0 -157 60 0 60 0 0 255 0 256 -67 -3 -67 -3 -36 -51 c-19 -28 -51 -75
-71 -104 l-37 -53 -73 107 -73 106 -69 0 c-41 0 -67 -4 -65 -10z"/>
<path d="M1740 1482 l0 -202 60 0 60 0 0 115 0 116 -51 77 c-29 42 -56 81 -60
87 -5 5 -9 -79 -9 -193z"/>
</g>
</svg>
