<?xml version="1.0" encoding="UTF-8"?>
<svg version="1.1" xmlns="http://www.w3.org/2000/svg" width="1536" height="1024">
<path d="M0 0 C506.88 0 1013.76 0 1536 0 C1536 337.92 1536 675.84 1536 1024 C1029.12 1024 522.24 1024 0 1024 C0 686.08 0 348.16 0 0 Z " fill="#FDFDFD" transform="translate(0,0)"/>
<path d="M0 0 C1.34565869 -0.00464144 2.6913161 -0.00966782 4.03697205 -0.01504517 C7.67818456 -0.02808846 11.31937866 -0.03460431 14.96061087 -0.03905582 C17.2636612 -0.04201413 19.56670686 -0.04612478 21.86975479 -0.05056 C29.15378221 -0.06424544 36.43779851 -0.07389364 43.72183788 -0.07776189 C51.16634178 -0.08174132 58.61071565 -0.09375461 66.05517578 -0.12011719 C104.40101669 -0.25299795 142.51190756 0.11171218 180.7770462 2.96820641 C183.42181582 3.16427774 186.06700965 3.35314857 188.71246338 3.53974915 C227.03659532 6.24691715 265.27211339 10.28978027 303.37939453 15.16113281 C303.37939453 15.49113281 303.37939453 15.82113281 303.37939453 16.16113281 C302.27742233 16.16699905 301.17545013 16.1728653 300.04008484 16.1789093 C227.63939477 16.2318398 227.63939477 16.2318398 155.37939453 20.16113281 C154.44724121 20.23974548 153.51508789 20.31835815 152.5546875 20.39935303 C134.83710496 21.89745372 117.2401065 23.60878385 99.6875 26.47412109 C94.37267885 27.336027 89.04024025 27.98419136 83.69189453 28.59863281 C67.49522849 30.54686637 51.4350308 33.31679447 35.41845703 36.39941406 C32.54321282 36.94982609 29.66349342 37.46126817 26.77783203 37.95410156 C-1.5224108 42.83592097 -30.18635833 48.90001066 -57.66357422 57.2746582 C-61.37285835 58.3866472 -65.09564584 59.44794701 -68.81982422 60.50878906 C-138.05762944 80.27463201 -207.50469987 104.52442095 -271.06982422 138.74707031 C-274.9471063 140.82666541 -278.87710088 142.77576533 -282.83227539 144.70214844 C-294.36438877 150.33344963 -305.39426436 156.69913172 -316.41845703 163.26074219 C-319.69412783 165.20476639 -322.9802522 167.13002339 -326.26904297 169.05175781 C-349.72603774 182.7918461 -372.45828853 197.418558 -394.62060547 213.16113281 C-395.43110352 213.73460449 -396.24160156 214.30807617 -397.07666016 214.89892578 C-407.80856854 222.50497062 -418.24386701 230.44441956 -428.58544922 238.57128906 C-430.98645649 240.44693198 -433.40918177 242.29240956 -435.8359375 244.13452148 C-442.39138584 249.11774445 -448.69350515 254.34806084 -454.93505859 259.71386719 C-456.68547318 261.21683035 -458.44154155 262.71297249 -460.19873047 264.20800781 C-466.28879498 269.39739422 -472.29818256 274.65209588 -478.21435547 280.04003906 C-480.681346 282.21467519 -483.22745829 284.24818056 -485.80810547 286.28613281 C-491.29882086 290.71614182 -496.22254586 295.61886643 -501.14282227 300.66943359 C-504.05978355 303.65318345 -506.99466315 306.52504592 -510.17529297 309.22753906 C-516.12186148 314.35361799 -521.59311039 319.98480104 -527.13208008 325.54223633 C-529.07437812 327.48995084 -531.02203687 329.43219212 -532.97021484 331.37402344 C-534.20686422 332.61133265 -535.44320389 333.8489515 -536.67919922 335.08691406 C-537.55251137 335.95718987 -537.55251137 335.95718987 -538.44346619 336.845047 C-541.39331633 339.72937726 -541.39331633 339.72937726 -543.62060547 343.16113281 C-544.28060547 343.16113281 -544.94060547 343.16113281 -545.62060547 343.16113281 C-545.84361328 343.71285156 -546.06662109 344.26457031 -546.29638672 344.83300781 C-548.03614643 347.89170041 -550.27825028 349.96851401 -552.80810547 352.41113281 C-556.65009695 356.16902038 -560.33077333 359.99050016 -563.81982422 364.07910156 C-565.99384749 366.5926686 -568.24451035 369.0288951 -570.49560547 371.47363281 C-574.54826907 375.9163272 -578.37994033 380.48673664 -582.15576172 385.16503906 C-584.99654427 388.61809804 -587.92706469 391.98327894 -590.87060547 395.34863281 C-601.03083437 406.99710383 -610.64870514 419.08647754 -620.14892578 431.27587891 C-621.73680867 433.30999165 -623.3309431 435.33911696 -624.92529297 437.36816406 C-636.05773299 451.56730576 -646.79091 466.03891598 -657.14794922 480.81323242 C-659.70671456 484.4612594 -662.28573886 488.09193123 -664.90576172 491.69628906 C-665.45594971 492.45506348 -666.0061377 493.21383789 -666.57299805 493.99560547 C-667.6817821 495.51401329 -668.8000456 497.02554724 -669.92797852 498.52978516 C-672.59627742 502.13105847 -674.93273146 505.60902285 -676.85498047 509.66503906 C-678.86371227 513.74379545 -680.75956771 517.57205701 -684.62060547 520.16113281 C-690.92718852 521.88624545 -697.6466662 520.52780031 -704.00195312 519.63427734 C-707.98880113 519.11299065 -711.96892859 518.7566092 -715.97607422 518.43847656 C-728.58046958 517.42765074 -741.16788121 516.24470466 -753.74462891 514.93310547 C-759.3026555 514.36416438 -764.86595888 513.87652861 -770.43310547 513.40722656 C-771.22044571 513.34072906 -772.00778595 513.27423157 -772.81898499 513.20571899 C-776.79733998 512.87058973 -780.7759949 512.53963736 -784.75512695 512.21386719 C-786.2298232 512.0908861 -787.70451418 511.96784195 -789.17919922 511.84472656 C-790.49202881 511.73700928 -791.8048584 511.62929199 -793.1574707 511.51831055 C-796.62060547 511.16113281 -796.62060547 511.16113281 -799.04142761 510.66665649 C-801.49464311 510.18582167 -803.8599937 509.9103789 -806.35058594 509.71557617 C-807.27946121 509.64106232 -808.20833649 509.56654846 -809.1653595 509.48977661 C-810.17926254 509.4109726 -811.19316559 509.33216858 -812.23779297 509.25097656 C-814.50158199 509.06823228 -816.76533331 508.88502041 -819.02905273 508.70141602 C-820.24086212 508.60381989 -821.45267151 508.50622375 -822.70120239 508.40567017 C-851.76070727 506.05421902 -880.75957783 503.20519345 -909.75668526 500.18599129 C-913.79576846 499.76568272 -917.83506148 499.3474297 -921.87451172 498.93066406 C-923.03709063 498.81063396 -923.03709063 498.81063396 -924.22315598 498.68817902 C-936.23611031 497.45311689 -948.25417016 496.43804568 -960.29907227 495.56176758 C-966.63347042 495.09748101 -972.93597918 494.45223771 -979.24560547 493.72363281 C-986.81731633 492.87920208 -994.38965314 492.07161113 -1001.97607422 491.37207031 C-1002.68163452 491.30698776 -1003.38719482 491.24190521 -1004.11413574 491.17485046 C-1007.52487349 490.86177944 -1010.93598413 490.55400288 -1014.34765625 490.2512207 C-1023.14586752 489.45318545 -1031.87422479 488.39307215 -1040.62060547 487.16113281 C-1037.68284626 483.1302539 -1034.81480483 479.31052461 -1031.26325989 475.79063416 C-1029.24447815 473.78801722 -1027.23877275 471.77263864 -1025.23266602 469.75732422 C-1021.09210544 465.60075243 -1016.94933273 461.44639453 -1012.8049345 457.29364967 C-1010.30896865 454.79247105 -1007.81394702 452.29036535 -1005.32104492 449.78613281 C-1002.42762955 446.87966056 -999.53007314 443.97734708 -996.63232422 441.07519531 C-995.30692879 439.74205795 -995.30692879 439.74205795 -993.95475769 438.38198853 C-989.5412513 433.96808723 -985.07618421 429.6915361 -980.32380676 425.64291382 C-977.61609568 423.28721172 -975.12239774 420.73165564 -972.62060547 418.16113281 C-968.80502161 414.24072522 -964.85105325 410.5794323 -960.71337891 407 C-957.13569977 403.85638367 -953.69858678 400.56533947 -950.24560547 397.28613281 C-942.19617668 389.67695493 -934.02970448 382.23537925 -925.67138672 374.96582031 C-923.3597175 372.9315514 -921.08529117 370.85890972 -918.80810547 368.78613281 C-914.43774863 364.83741836 -909.91757468 361.11486072 -905.33935547 357.41113281 C-902.69912817 355.22611712 -900.15330827 352.96941891 -897.62060547 350.66113281 C-892.96925756 346.43197298 -888.1520815 342.45346679 -883.26513672 338.50097656 C-881.42638598 337.00289698 -879.60094596 335.48952727 -877.77685547 333.97363281 C-868.28804629 326.09459218 -858.64908931 318.4421324 -848.88232422 310.91113281 C-846.63187494 309.16985254 -844.39050445 307.41755093 -842.15185547 305.66113281 C-832.24325024 297.89375724 -822.18957377 290.35282424 -812.02490234 282.92431641 C-809.59689882 281.14374762 -807.17785826 279.35163584 -804.76123047 277.55566406 C-796.26444366 271.24631323 -787.70529542 265.07126037 -778.95263672 259.12207031 C-775.72286699 256.92440122 -772.51743686 254.69439395 -769.31982422 252.45019531 C-745.75807459 235.92053488 -721.62462736 220.21094876 -696.87841797 205.50878906 C-694.20369361 203.91228404 -691.53706765 202.30264893 -688.87060547 200.69238281 C-662.39941446 184.71906281 -635.45593475 169.74668 -608.05175781 155.43554688 C-605.5037734 154.09988925 -602.96233721 152.75230676 -600.42138672 151.40332031 C-553.08316682 126.35559149 -503.89547156 105.58017988 -453.80810547 86.72363281 C-452.82483276 86.35240295 -451.84156006 85.9811731 -450.82849121 85.59869385 C-433.68360692 79.13854745 -416.40989756 73.03428321 -398.84083557 67.82136536 C-396.01491725 66.98101857 -393.20211589 66.10159023 -390.39013672 65.21582031 C-363.40444523 56.75174542 -336.35448157 48.8280542 -308.859375 42.18798828 C-305.98856194 41.49440198 -303.11997884 40.79247938 -300.25292969 40.08349609 C-246.26143811 26.73918893 -191.21552569 16.59770189 -135.921875 10.53759766 C-131.88154705 10.07685326 -127.85556489 9.5347822 -123.82739258 8.97900391 C-96.67024969 5.24887708 -69.43510249 3.58009878 -42.07739258 2.16308594 C-40.93414017 2.1033963 -39.79088776 2.04370667 -38.61299133 1.98220825 C-36.46523718 1.87080566 -34.31736466 1.76165169 -32.1693573 1.65524292 C-30.70203911 1.57960617 -30.70203911 1.57960617 -29.20507812 1.50244141 C-28.3644986 1.46041595 -27.52391907 1.4183905 -26.65786743 1.37509155 C-24.9447883 1.25441436 -23.23210191 1.11690859 -21.52579689 0.92267609 C-14.34013195 0.10688975 -7.22737266 0.00652489 0 0 Z " fill="#54565B" transform="translate(1134.62060546875,249.8388671875)"/>
<path d="M0 0 C1.61195009 0.32045882 3.2239243 0.64079634 4.8359375 0.9609375 C56.95776771 11.80570089 109.85484705 39.53024255 151 73 C151.82242188 73.64453125 152.64484375 74.2890625 153.4921875 74.953125 C163.44510424 82.77554519 173.16707952 90.90655973 181.9921875 99.9921875 C183.92018418 101.92018418 185.91631831 103.68067034 188 105.4375 C191.94620254 108.81995932 195.32109884 112.59457781 198.74609375 116.49609375 C201.55150912 119.61268171 204.52926832 122.51712074 207.56640625 125.40625 C209 127 209 127 209 129 C208.15246658 129.06850662 208.15246658 129.06850662 207.28781128 129.13839722 C201.28291344 129.62399624 195.2781432 130.11115208 189.2734375 130.59912109 C187.0472314 130.77984041 184.82099546 130.96019269 182.59472656 131.14013672 C170.93785085 132.08258512 159.28236417 133.04082741 147.6328125 134.0703125 C146.25909988 134.18848831 146.25909988 134.18848831 144.8576355 134.30905151 C144.0114566 134.38511627 143.16527771 134.46118103 142.29345703 134.53955078 C141.55741241 134.60457794 140.8213678 134.6696051 140.0630188 134.73660278 C137.99481776 134.95909004 137.99481776 134.95909004 135.99752808 135.5032959 C133.89131878 136.02702461 131.90926741 136.24306187 129.74609375 136.40771484 C128.90626953 136.47584381 128.06644531 136.54397278 127.20117188 136.61416626 C126.28916016 136.68735077 125.37714844 136.76053528 124.4375 136.8359375 C111.22630615 137.97285601 98.12530935 139.76017464 85 141.625 C83.15730026 141.88478134 83.15730026 141.88478134 81.27737427 142.14981079 C31.074831 147.93283607 31.074831 147.93283607 -17.78955078 159.98071289 C-21.35445366 161.11253567 -24.90324181 161.73566027 -28.5859375 162.31640625 C-38.72526939 164.01539592 -48.6529057 166.45917911 -58.625 168.9375 C-60.39571762 169.37221638 -62.16655073 169.80646265 -63.9375 170.24023438 C-77.6748944 173.61593716 -91.36500723 177.11423001 -104.8984375 181.2421875 C-108.33860107 182.27423657 -111.75804365 183.18605095 -115.2734375 183.92578125 C-120.86969141 185.1342945 -126.29052747 186.85051106 -131.75 188.5625 C-132.87325684 188.91183594 -133.99651367 189.26117188 -135.15380859 189.62109375 C-137.54467282 190.36475702 -139.93512582 191.10974351 -142.32519531 191.85595703 C-145.98245143 192.99453676 -149.6429752 194.12193535 -153.3046875 195.24609375 C-165.01097523 198.84592745 -176.69247158 202.50467147 -188.3125 206.375 C-189.27816895 206.69662109 -190.24383789 207.01824219 -191.23876953 207.34960938 C-195.81382017 208.88681339 -200.34689541 210.49807216 -204.86271667 212.20040894 C-208.43851552 213.53817112 -212.03276551 214.82436696 -215.625 216.1171875 C-237.28871067 223.94372888 -258.7604574 232.08551073 -280 241 C-281.17208008 241.49032715 -282.34416016 241.9806543 -283.55175781 242.48583984 C-323.53448953 259.26380777 -363.41516498 277.23251204 -401.24121094 298.47363281 C-404.47840873 300.26469127 -407.74021694 302.0074825 -411.0078125 303.7421875 C-411.61794189 304.0662558 -412.22807129 304.3903241 -412.85668945 304.72421265 C-414.0984757 305.38361093 -415.34029712 306.04294295 -416.58215332 306.70220947 C-426.03413966 311.721731 -435.36691849 316.82874766 -444.41015625 322.55859375 C-447 324 -447 324 -450 324 C-444.76734308 252.5390883 -417.80147392 182.3551556 -372 127 C-371.31808594 126.14535156 -370.63617187 125.29070312 -369.93359375 124.41015625 C-356.56841988 107.7455298 -341.41187245 91.14808987 -324.546875 77.98828125 C-321.74740504 75.80280547 -319.07011628 73.50020114 -316.375 71.1875 C-309.57454846 65.51312582 -302.38682885 60.44852777 -295.08886719 55.4375 C-293.16806689 54.11565893 -291.25911748 52.7783404 -289.3515625 51.4375 C-278.73291754 44.06808415 -267.42796711 38.01037677 -256 32 C-255.28730957 31.62101562 -254.57461914 31.24203125 -253.84033203 30.8515625 C-226.20523245 16.21190805 -195.67072739 5.14064926 -165 -1 C-163.9785791 -1.20963379 -162.9571582 -1.41926758 -161.90478516 -1.63525391 C-107.84462743 -12.56597561 -53.82912994 -11.22300055 0 0 Z " fill="#53565A" transform="translate(892,103)"/>
<path d="M0 0 C2.03571076 1.48639199 3.91479147 2.97854391 5.8125 4.625 C6.37291992 5.10646484 6.93333984 5.58792969 7.51074219 6.08398438 C23.03154977 19.63159077 35.98834302 34.6090816 47 52 C47.6909375 53.07636719 48.381875 54.15273438 49.09375 55.26171875 C58.80969593 71.24290758 65.28700399 89.70063196 69 108 C69.18618896 108.90459961 69.37237793 109.80919922 69.56420898 110.74121094 C71.22666698 119.95115484 71.2724596 129.03250206 71.20581055 138.35644531 C71.18753088 140.99554146 71.18530187 143.63428445 71.18554688 146.2734375 C71.13522618 171.20792583 71.13522618 171.20792583 67.80078125 182.22265625 C66.96815315 185.11045418 66.39455311 187.98968264 65.8125 190.9375 C61.23170169 210.94585737 50.96712399 230.45395796 39 247 C38.27167969 248.02609375 37.54335938 249.0521875 36.79296875 250.109375 C24.6340114 266.67675659 9.273174 281.83949037 -8 293 C-9.07121094 293.70898438 -10.14242188 294.41796875 -11.24609375 295.1484375 C-22.63493507 302.42502889 -34.67418171 308.19574522 -47.1875 313.25 C-47.9700415 313.56710937 -48.75258301 313.88421875 -49.55883789 314.2109375 C-95.24777811 332.21605851 -150.58316967 331.26214902 -195.6628418 311.81445312 C-225.58617351 298.49196154 -253.23733044 278.38564305 -273 252 C-273.60086426 251.20505127 -273.60086426 251.20505127 -274.21386719 250.39404297 C-280.62378363 241.81729075 -285.91566632 232.79804703 -290.875 223.3125 C-291.41020264 222.29212646 -291.94540527 221.27175293 -292.49682617 220.22045898 C-302.33123697 201.00012721 -302.33123697 201.00012721 -301.75732422 195.80200195 C-299.82835598 191.21215198 -296.00865981 187.93287665 -292.3046875 184.76171875 C-288.15308253 181.16239802 -284.16750368 177.41171865 -280.1875 173.625 C-274.92814344 168.6625084 -269.61330459 163.8708254 -263.95703125 159.359375 C-260.92379834 156.93919973 -257.9312748 154.47489923 -254.94189453 152.00097656 C-243.51675362 142.54832043 -232.04746501 133.16085406 -220.1328125 124.328125 C-217.86602334 122.64357844 -215.61229502 120.94728278 -213.3671875 119.234375 C-205.44211911 113.20460551 -197.38120339 107.43802264 -189.1340332 101.85644531 C-184.6054473 98.79077227 -180.12421788 95.67457979 -175.68554688 92.48022461 C-166.25433022 85.70516933 -156.47921215 79.58087273 -146.55615234 73.55517578 C-144.14219512 72.08651222 -141.73575768 70.60642737 -139.33203125 69.12109375 C-101.00502072 45.47135848 -61.33319822 24.30914732 -20.25 5.875 C-19.60804688 5.58683411 -18.96609375 5.29866821 -18.3046875 5.00177002 C-3.81437022 -1.49287739 -3.81437022 -1.49287739 0 0 Z " fill="#53565B" transform="translate(944,376)"/>
<path d="M0 0 C2.29940419 4.54241973 4.57736115 9.0948487 6.83691406 13.65722656 C7.58226486 15.15856708 8.33128405 16.65809532 9.08496094 18.15527344 C26.21367758 52.27114708 37.41106818 89.26801238 44.1875 126.75 C44.4254126 128.04325195 44.6633252 129.33650391 44.90844727 130.66894531 C49.05943457 154.04162482 50.5561535 177.41307627 50.4375 201.125 C50.43479095 202.40583466 50.43208191 203.68666931 50.42929077 205.00631714 C50.36449472 225.2833817 49.44019263 245.00871983 46 265 C45.80212891 266.18158691 45.60425781 267.36317383 45.40039062 268.58056641 C44.11640162 276.09647291 42.62524684 283.55116866 41 291 C40.82952148 291.81871582 40.65904297 292.63743164 40.48339844 293.48095703 C30.99273905 338.60404238 10.39124583 382.82611534 -15 421 C-15.4650293 421.70302246 -15.93005859 422.40604492 -16.40917969 423.13037109 C-31.51453291 445.86239497 -49.34734944 466.36996812 -68.54745483 485.72268677 C-69.95726623 487.1444053 -71.36309679 488.57006788 -72.76879883 489.99584961 C-78.86831093 496.10299496 -85.25586617 501.62094551 -92 507 C-93.03933831 507.87503767 -94.07447358 508.75514752 -95.1015625 509.64453125 C-124.31362313 534.74158024 -159.82220146 554.08446632 -196 567 C-198.17755321 567.79950263 -200.35461591 568.60034221 -202.53125 569.40234375 C-222.11618035 576.56186981 -241.21761126 581.78566797 -261.6875 585.625 C-262.46277039 585.77166107 -263.23804077 585.91832214 -264.0368042 586.06942749 C-285.98013955 590.18790045 -307.47078129 592.51596984 -329.8125 592.3125 C-332.01822901 592.30180588 -334.22395817 592.2911454 -336.4296875 592.28051758 C-357.02913969 592.13734278 -377.37789567 591.29263384 -397.65380859 587.4296875 C-400.3013983 586.94480114 -402.9551273 586.51683166 -405.61328125 586.09375 C-416.70794578 584.30446521 -427.31469554 581.99820263 -438.02246094 578.60253906 C-442.51263642 577.2344214 -447.0818657 576.137526 -451.6328125 574.9921875 C-454.57687567 574.12467933 -457.2606439 573.03784032 -460.05639648 571.78588867 C-462.28478361 570.88484883 -464.5294396 570.22092308 -466.83984375 569.55859375 C-471.92058464 568.07834772 -476.71532481 566.17618779 -481.5625 564.0625 C-482.45888184 563.67263916 -483.35526367 563.28277832 -484.27880859 562.88110352 C-487.19238292 561.60150331 -490.09759189 560.30472158 -493 559 C-493.97984863 558.56010742 -494.95969727 558.12021484 -495.96923828 557.66699219 C-518.13779907 547.61167035 -539.58941044 535.7549131 -559 521 C-560.29671678 520.04748796 -561.59497828 519.09707636 -562.89453125 518.1484375 C-571.95712727 511.49791458 -580.59789597 504.46506226 -589 497 C-589.74209717 496.34547852 -590.48419434 495.69095703 -591.2487793 495.01660156 C-597.72746065 489.25464791 -603.93034082 483.2528859 -610.0625 477.125 C-610.99126953 476.20847656 -611.92003906 475.29195312 -612.87695312 474.34765625 C-619.02675227 468.21080405 -624.58875293 461.79080106 -630 455 C-630.86346892 453.97251775 -631.73186191 452.94910797 -632.609375 451.93359375 C-637.6972001 446.00089258 -642.44055109 439.86279252 -647.0625 433.5625 C-647.63516602 432.79284912 -648.20783203 432.02319824 -648.79785156 431.23022461 C-649.59594238 430.12819702 -649.59594238 430.12819702 -650.41015625 429.00390625 C-650.88590088 428.35236572 -651.36164551 427.7008252 -651.85180664 427.02954102 C-653.19554487 424.65435584 -653.71608887 422.70981065 -654 420 C-652.62109375 417.51953125 -652.62109375 417.51953125 -650.4375 414.8125 C-650.04054932 414.31057129 -649.64359863 413.80864258 -649.23461914 413.29150391 C-648.33792813 412.1583619 -647.43508751 411.030069 -646.52734375 409.90576172 C-644.84826258 407.81066779 -643.2033345 405.69157798 -641.5625 403.56640625 C-636.6554015 397.21154062 -631.72783056 390.87500989 -626.6875 384.625 C-622.31044954 379.19403935 -618.15691724 373.60029128 -614 368 C-609.83987766 369.38670745 -608.79473614 372.26735029 -606.6875 375.875 C-597.55444581 390.95946943 -586.80771991 404.91948061 -575 418 C-574.45375977 418.6079541 -573.90751953 419.2159082 -573.34472656 419.84228516 C-560.95654196 433.56257061 -547.75963645 445.87344238 -533 457 C-532.41669922 457.44553223 -531.83339844 457.89106445 -531.23242188 458.35009766 C-479.0148664 498.17243209 -413.59616507 524.79593365 -347.40625 525.23828125 C-346.22067505 525.246353 -345.0351001 525.25442474 -343.81359863 525.26274109 C-341.3091779 525.27650288 -338.80473903 525.28725996 -336.30029297 525.29516602 C-333.79535226 525.30659161 -331.29043404 525.32689013 -328.78564453 525.35668945 C-303.66404129 525.65437031 -279.91997215 522.27306671 -255.5 516.56738281 C-253.2763047 516.06270822 -251.05184515 515.60824435 -248.8125 515.1796875 C-187.98894285 503.09011326 -122.72109891 461.32760056 -84.30078125 412.8359375 C-82.46322719 410.57097273 -80.58464154 408.38967064 -78.6484375 406.2109375 C-67.0485649 393.01199167 -57.67114445 378.22979083 -49 363 C-48.63213379 362.36739258 -48.26426758 361.73478516 -47.88525391 361.08300781 C-31.34609322 332.55631403 -21.23884594 300.20764631 -15 268 C-14.74911621 266.71077637 -14.74911621 266.71077637 -14.49316406 265.39550781 C-11.08554389 247.47802111 -9.65385106 229.49932333 -9.73925781 211.27319336 C-9.74998349 208.56666617 -9.73927485 205.86080435 -9.7265625 203.15429688 C-9.71213783 184.89441461 -11.31251209 166.89154672 -15 149 C-15.17982422 148.09813965 -15.35964844 147.1962793 -15.54492188 146.26708984 C-21.19661484 118.34680009 -30.2195142 91.46444888 -43 66 C-43.4861377 65.02353516 -43.97227539 64.04707031 -44.47314453 63.04101562 C-52.35615687 47.30066015 -60.92597941 31.9388912 -71.07421875 17.53125 C-72 16 -72 16 -72 14 C-58.96268445 10.07033477 -45.85279778 7.23181459 -32.46386719 4.77758789 C-29.21089854 4.18032071 -25.96089078 3.56852019 -22.7109375 2.95507812 C-20.62515766 2.56686034 -18.53922551 2.17945973 -16.453125 1.79296875 C-15.49061829 1.61179001 -14.52811157 1.43061127 -13.53643799 1.24394226 C-8.96222885 0.41243261 -4.67293142 -0.2231456 0 0 Z " fill="#54565B" transform="translate(1157,311)"/>
<path d="M0 0 C1.5012207 1.40087891 1.5012207 1.40087891 2.92578125 3.2265625 C3.4674292 3.91669434 4.00907715 4.60682617 4.56713867 5.31787109 C5.14310791 6.07922363 5.71907715 6.84057617 6.3125 7.625 C6.92134033 8.42115723 7.53018066 9.21731445 8.1574707 10.03759766 C37.37510923 48.84279823 58.01330439 93.53983157 64 142 C64.16894775 143.30308105 64.33789551 144.60616211 64.51196289 145.94873047 C65.89169149 157.03261214 66.36526152 167.96118564 66.3125 179.125 C66.31001251 179.97472382 66.30752502 180.82444763 66.30496216 181.69992065 C66.06226947 235.57958814 48.97367539 289.46112964 17 333 C16.56800293 333.58894043 16.13600586 334.17788086 15.69091797 334.78466797 C10.80630062 341.39065483 5.65493927 347.68272823 0.0859375 353.73046875 C-1.84154676 355.8276005 -3.70761357 357.96376355 -5.5625 360.125 C-11.5368915 366.96664188 -18.05466261 373.15761714 -25 379 C-25.52529297 379.44972168 -26.05058594 379.89944336 -26.59179688 380.36279297 C-50.20683221 400.51385489 -77.25757092 415.47068541 -106 427 C-106.97243652 427.39316406 -107.94487305 427.78632812 -108.94677734 428.19140625 C-163.4730044 449.91228947 -226.14136945 453.08473445 -283 439 C-283.82129395 438.80148437 -284.64258789 438.60296875 -285.48876953 438.3984375 C-324.84470847 428.75040344 -364.85571112 407.87219364 -395 381 C-395.50740723 380.55043945 -396.01481445 380.10087891 -396.53759766 379.63769531 C-408.93024643 368.62110012 -420.78639802 357.08339241 -431 344 C-431.96247715 342.813181 -432.92748479 341.62841129 -433.89453125 340.4453125 C-440.33775818 332.53929339 -446.33943721 324.49084419 -452 316 C-452.87420206 314.73902976 -453.749229 313.47863108 -454.625 312.21875 C-455.48027321 310.95908393 -456.33446707 309.69868424 -457.1875 308.4375 C-457.59895264 307.85347412 -458.01040527 307.26944824 -458.43432617 306.66772461 C-459.54296875 304.99609375 -459.54296875 304.99609375 -461 302 C-460.14802757 298.02159304 -456.55744742 295.1495405 -453.8125 292.25 C-452.81051284 291.17511738 -451.80920995 290.09959648 -450.80859375 289.0234375 C-450.32374512 288.50362305 -449.83889648 287.98380859 -449.33935547 287.44824219 C-447.64911801 285.62059206 -446.00607471 283.75553319 -444.375 281.875 C-441.71929036 278.82348748 -439.05819295 275.77741836 -436.375 272.75 C-435.66085937 271.94046875 -434.94671875 271.1309375 -434.2109375 270.296875 C-431.95528566 267.95354764 -429.58095931 265.97420747 -427 264 C-426.53851562 264.94617188 -426.07703125 265.89234375 -425.6015625 266.8671875 C-418.15980444 282.01045761 -410.65900375 296.837458 -400 310 C-399.31679688 310.87398437 -398.63359375 311.74796875 -397.9296875 312.6484375 C-376.8774778 339.13848735 -351.60718541 359.69727273 -322 376 C-320.9179126 376.59699707 -320.9179126 376.59699707 -319.81396484 377.20605469 C-304.92421387 385.30026578 -288.97024544 391.45686569 -272.4453125 395.2109375 C-270.20473182 395.72408636 -267.97862772 396.3070307 -265.77734375 396.96875 C-249.25316747 401.48000392 -232.34089337 402.3807971 -215.3125 402.3125 C-214.51915253 402.30986145 -213.72580505 402.3072229 -212.90841675 402.30450439 C-197.12892104 402.21750201 -181.75167381 401.55303237 -166.25 398.3125 C-165.60524719 398.17994812 -164.96049438 398.04739624 -164.29620361 397.91082764 C-132.16594064 391.2852266 -100.689081 379.37180074 -74 360 C-73.34837891 359.53480957 -72.69675781 359.06961914 -72.02539062 358.59033203 C-62.3814092 351.68496447 -53.4993369 344.26658829 -45 336 C-44.47390137 335.49436523 -43.94780273 334.98873047 -43.40576172 334.46777344 C-36.73177517 328.0406693 -30.57004386 321.42319534 -25 314 C-24.12762172 312.86847605 -23.25522465 311.73696658 -22.3828125 310.60546875 C-15.70675986 301.83862857 -10.10967719 292.7546249 -5 283 C-4.64276855 282.32259766 -4.28553711 281.64519531 -3.91748047 280.94726562 C1.82780669 269.98253997 6.52352057 258.82299508 10.3203125 247.02734375 C10.97767948 245.06657673 11.72664686 243.16743743 12.5 241.25 C19.46879281 222.66655252 20.49169877 202.04229626 20.33618164 182.43505859 C20.31241824 179.23900316 20.31567316 176.04377895 20.32226562 172.84765625 C20.30261635 157.84024916 19.42093117 143.37921868 15.8125 128.75 C15.59964355 127.87577393 15.38678711 127.00154785 15.16748047 126.10083008 C11.3175986 110.84769113 5.6467146 96.23593029 -1 82 C-1.53109375 80.84371094 -2.0621875 79.68742187 -2.609375 78.49609375 C-11.77884015 59.30571312 -29.24127758 26.87936121 -49 17 C-49 16.34 -49 15.68 -49 15 C-47.1893314 14.22487453 -45.37634709 13.45515813 -43.5625 12.6875 C-42.04849609 12.04361328 -42.04849609 12.04361328 -40.50390625 11.38671875 C-37.21044536 10.08328662 -33.90981538 8.94108011 -30.54516602 7.84106445 C-27.68997522 6.89755057 -24.85138024 5.91111699 -22.01171875 4.921875 C-19.90369462 4.19777462 -17.79562098 3.47381836 -15.6875 2.75 C-14.08165039 2.18539063 -14.08165039 2.18539063 -12.44335938 1.609375 C-11.41404297 1.25875 -10.38472656 0.908125 -9.32421875 0.546875 C-8.39697998 0.22557617 -7.46974121 -0.09572266 -6.5144043 -0.42675781 C-3.80688971 -1.04402592 -2.53481396 -1.09380333 0 0 Z " fill="#53565A" transform="translate(1036,341)"/>
<path d="M0 0 C12.46484007 -0.65732555 24.68334553 1.30135882 37 3 C37 3.33 37 3.66 37 4 C9.32428396 4.20636934 -18.33213177 3.61039278 -46 3 C-46 2.67 -46 2.34 -46 2 C-30.82 2 -15.64 2 0 2 C0 1.34 0 0.68 0 0 Z " fill="#505157" transform="translate(1401,262)"/>
<path d="M0 0 C2.31 0 4.62 0 7 0 C7 0.66 7 1.32 7 2 C7.66 2.33 8.32 2.66 9 3 C-9.15 3 -27.3 3 -46 3 C-46 2.67 -46 2.34 -46 2 C-30.82 2 -15.64 2 0 2 C0 1.34 0 0.68 0 0 Z " fill="#46494D" transform="translate(1401,262)"/>
<path d="M0 0 C5.21979128 -0.1799928 9.07262981 0.02905192 14 2 C14 2.33 14 2.66 14 3 C7.73 3 1.46 3 -5 3 C-5 2.67 -5 2.34 -5 2 C-3.35 1.67 -1.7 1.34 0 1 C0 0.67 0 0.34 0 0 Z " fill="#B8B9BB" transform="translate(1432,264)"/>
<path d="M0 0 C0.66 0.33 1.32 0.66 2 1 C0.70464339 3.59071323 -1.28451475 4.89665017 -3.5 6.69140625 C-5.30934797 8.26987388 -6.67068548 10.00602823 -8 12 C-8.99 11.67 -9.98 11.34 -11 11 C-7.37 7.37 -3.74 3.74 0 0 Z " fill="#6C6D70" transform="translate(608,605)"/>
<path d="M0 0 C0.33 0.99 0.66 1.98 1 3 C-1.31 4.98 -3.62 6.96 -6 9 C-6 6 -6 6 -4.6875 4.39453125 C-4.130625 3.87246094 -3.57375 3.35039062 -3 2.8125 C-2.443125 2.28269531 -1.88625 1.75289062 -1.3125 1.20703125 C-0.6628125 0.60955078 -0.6628125 0.60955078 0 0 Z " fill="#616366" transform="translate(556,191)"/>
<path d="M0 0 C3.3 0.33 6.6 0.66 10 1 C5.64467851 3.17766075 4.53374042 3.03039555 0 2 C0 1.34 0 0.68 0 0 Z " fill="#53565B" transform="translate(1408,262)"/>
<path d="M0 0 C0 3.97054597 -1.3139381 5.16471244 -4 8 C-6.140625 8.6484375 -6.140625 8.6484375 -8 9 C-7.04270084 7.87411986 -6.08412105 6.7493285 -5.125 5.625 C-4.59132813 4.99851562 -4.05765625 4.37203125 -3.5078125 3.7265625 C-2.38567993 2.44163349 -1.20628025 1.20628025 0 0 Z " fill="#646567" transform="translate(996,672)"/>
<path d="M0 0 C0.66 0.66 1.32 1.32 2 2 C-0.97 4.475 -0.97 4.475 -4 7 C-4 4 -4 4 -2 1.8125 C-1.34 1.214375 -0.68 0.61625 0 0 Z " fill="#5C5E61" transform="translate(126,703)"/>
<path d="M0 0 C0.66 0.33 1.32 0.66 2 1 C-1.465 3.97 -1.465 3.97 -5 7 C-5 6.01 -5 5.02 -5 4 C-2.5 1.8125 -2.5 1.8125 0 0 Z " fill="#5C5E61" transform="translate(170,661)"/>
</svg>
